<svg width="82" height="15" viewBox="0 0 82 15" fill="none" xmlns="http://www.w3.org/2000/svg">
<path d="M7.82013e-05 14.5996V0.199609H6.44008C7.48008 0.199609 8.38674 0.379609 9.16008 0.739609C9.93341 1.08628 10.5334 1.57961 10.9601 2.21961C11.3867 2.85961 11.6001 3.60628 11.6001 4.45961C11.6001 5.29961 11.3867 6.03961 10.9601 6.67961C10.5334 7.30628 9.93341 7.79961 9.16008 8.15961C8.38674 8.50628 7.48008 8.67961 6.44008 8.67961H2.44008V6.41961H6.36008C7.09341 6.41961 7.65341 6.25294 8.04008 5.91961C8.44008 5.57294 8.64008 5.09294 8.64008 4.47961C8.64008 3.85294 8.44675 3.37961 8.06008 3.05961C7.67341 2.72628 7.10675 2.55961 6.36008 2.55961H3.08008V14.5996H7.82013e-05ZM8.12008 14.5996L2.34008 7.11961H5.60008L12.2801 14.5996H8.12008ZM13.4395 14.5996V0.199609H16.5195V14.5996H13.4395ZM14.8795 14.5996V12.2396H24.1595V14.5996H14.8795ZM14.8795 8.39961V6.07961H23.4595V8.39961H14.8795ZM14.8795 2.55961V0.199609H23.9195V2.55961H14.8795ZM25.7293 14.5996V11.2996H29.0293V14.5996H25.7293ZM25.7293 8.09961V4.79961H29.0293V8.09961H25.7293ZM38.0524 14.7996C37.0124 14.7996 36.0524 14.6196 35.1724 14.2596C34.2924 13.8863 33.5258 13.3663 32.8724 12.6996C32.2324 12.0329 31.7324 11.2463 31.3724 10.3396C31.0124 9.41961 30.8324 8.41961 30.8324 7.33961C30.8324 6.25961 31.0058 5.27294 31.3524 4.37961C31.7124 3.48628 32.2124 2.71294 32.8524 2.05961C33.5058 1.39294 34.2724 0.886275 35.1524 0.539609C36.0324 0.179609 36.9991 -0.000391006 38.0524 -0.000391006C39.2391 -0.000391006 40.3058 0.232942 41.2524 0.699608C42.2124 1.15294 42.9924 1.79961 43.5924 2.63961C44.2058 3.46628 44.5791 4.43961 44.7124 5.55961H41.7124C41.5391 4.53294 41.1191 3.75961 40.4524 3.23961C39.7858 2.70628 38.9924 2.43961 38.0724 2.43961C37.2591 2.43961 36.5391 2.63294 35.9124 3.01961C35.2991 3.40628 34.8191 3.96628 34.4724 4.69961C34.1258 5.41961 33.9524 6.29294 33.9524 7.31961C33.9524 8.35961 34.1258 9.25961 34.4724 10.0196C34.8324 10.7663 35.3258 11.3463 35.9524 11.7596C36.5791 12.1596 37.2991 12.3596 38.1124 12.3596C38.9791 12.3596 39.7458 12.0996 40.4124 11.5796C41.0791 11.0596 41.5124 10.2863 41.7124 9.25961H44.7524C44.5791 10.3796 44.1858 11.3596 43.5724 12.1996C42.9591 13.0263 42.1791 13.6663 41.2324 14.1196C40.2858 14.5729 39.2258 14.7996 38.0524 14.7996ZM44.9507 14.5996L50.1107 0.199609H52.7507L48.0107 14.5996H44.9507ZM55.5107 14.5996L50.7907 0.199609H53.5507L58.7107 14.5996H55.5107ZM47.6707 9.01961H55.7507V11.4196H47.6707V9.01961ZM60.1973 14.5996V0.199609H63.2773V14.5996H60.1973ZM61.6373 14.5996V12.2396H70.1973V14.5996H61.6373ZM71.9941 14.5996V0.199609H75.0741V14.5996H71.9941ZM73.4341 14.5996V12.2396H81.9941V14.5996H73.4341Z" fill="black"/>
</svg>
